<?xml version="1.0" encoding="utf-8"?>
<!-- Generator: Adobe Illustrator 23.0.3, SVG Export Plug-In . SVG Version: 6.00 Build 0)  -->
<svg version="1.1" id="Layer_1" xmlns="http://www.w3.org/2000/svg" xmlns:xlink="http://www.w3.org/1999/xlink" x="0px" y="0px"
	 viewBox="0 0 115 214" style="enable-background:new 0 0 115 214;" xml:space="preserve">
<style type="text/css">
	.st0{fill:#2AFC98;}
</style>
<path class="st0" d="M59,205L59,205c-5.2,0-9.5-4.3-9.5-9.5v-179c0-5.2,4.3-9.5,9.5-9.5h0c5.2,0,9.5,4.3,9.5,9.5v179
	C68.5,200.7,64.2,205,59,205z"/>
<path class="st0" d="M65.5,201.5L65.5,201.5c-3.7,3.7-9.7,3.7-13.4,0l-39.6-39.6c-3.7-3.7-3.7-9.7,0-13.4l0,0
	c3.7-3.7,9.7-3.7,13.4,0l39.6,39.6C69.2,191.8,69.2,197.8,65.5,201.5z"/>
<path class="st0" d="M52.5,202L52.5,202c-3.7-3.7-3.7-9.7,0-13.4L92.1,149c3.7-3.7,9.7-3.7,13.4,0l0,0c3.7,3.7,3.7,9.7,0,13.4
	L65.9,202C62.2,205.7,56.2,205.7,52.5,202z"/>
</svg>
