<?xml version="1.0" encoding="utf-8"?>
<!-- Generator: Adobe Illustrator 23.0.3, SVG Export Plug-In . SVG Version: 6.00 Build 0)  -->
<svg version="1.1" id="Layer_1" xmlns="http://www.w3.org/2000/svg" xmlns:xlink="http://www.w3.org/1999/xlink" x="0px" y="0px"
	 viewBox="0 0 800 600" style="enable-background:new 0 0 800 600;" xml:space="preserve">
<style type="text/css">
	.st0{fill:#49C5B6;}
	.st1{fill:none;}
	.st2{font-family:'MyriadPro-Regular';}
	.st3{font-size:12px;}
</style>
<g id="_x36_ySNDB.tif">
	
		<image style="overflow:visible;" width="326" height="368" id="Layer_0" xlink:href="F35D67A2B4764DB0.png"  transform="matrix(0.3067 0 0 0.2717 126 250)">
	</image>
</g>
<g id="ccCFRu.tif">
	
		<image style="overflow:visible;" width="222" height="204" id="Layer_0_1_" xlink:href="F35D67A2B4764DB1.png"  transform="matrix(0.4505 0 0 0.4902 26.5 250)">
	</image>
</g>
<g id="fFeM6z.tif">
	
		<image style="overflow:visible;" width="188" height="66" id="Layer_0_3_" xlink:href="F35D67A2B4764DB7.png"  transform="matrix(0.5319 0 0 1.5152 225 250)">
	</image>
</g>
<g id="aY7SkW.tif">
	
		<image style="overflow:visible;" width="298" height="150" id="Layer_0_6_" xlink:href="F35D67A2B4764DB2.png"  transform="matrix(0.3356 0 0 0.6667 324 250)">
	</image>
</g>
<g id="saxiCB_1_">
	
		<image style="overflow:visible;" width="289" height="66" id="saxiCB" xlink:href="F35D67A2B4764DB0.jpg"  transform="matrix(0.346 0 0 1.5152 423 250)">
	</image>
</g>
<rect x="522" y="250" class="st0" width="100" height="100"/>
<rect x="40" y="229.8" class="st1" width="61" height="40.1"/>
<text transform="matrix(1 0 0 1 40.0342 238.3091)" class="st2 st3">c3982e</text>
<rect x="144.5" y="233.9" class="st1" width="76.2" height="31.3"/>
<text transform="matrix(1 0 0 1 144.4771 242.4678)" class="st2 st3">fba47e</text>
<rect x="232.2" y="228.2" class="st1" width="86" height="53.8"/>
<text transform="matrix(1 0 0 1 232.2144 236.6714)" class="st2 st3">986287</text>
<rect x="329" y="230.1" class="st1" width="88.9" height="39.1"/>
<text transform="matrix(1 0 0 1 329.02 238.626)" class="st2 st3">93babc</text>
<rect x="435.5" y="228.2" class="st1" width="75.3" height="36.2"/>
<text transform="matrix(1 0 0 1 435.5088 236.7393)" class="st2 st3">e95c5av</text>
<rect x="535.5" y="231.9" class="st1" width="77.2" height="35.2"/>
<text transform="matrix(1 0 0 1 535.5176 240.4678)" class="st2 st3">49c5b6</text>
</svg>
