<svg id="Layer_1" data-name="Layer 1" xmlns="http://www.w3.org/2000/svg" viewBox="0 0 991.9 278"><defs><style>.cls-1,.cls-2,.cls-5{fill:#fff;}.cls-2{font-size:71.69px;}.cls-2,.cls-5{font-family:Muli-Regular, Muli;}.cls-3{letter-spacing:-0.06em;}.cls-4{letter-spacing:-0.01em;}.cls-5{font-size:109.24px;}.cls-6{fill:none;stroke:#fff;stroke-miterlimit:10;stroke-width:3px;}</style></defs><title>eatMangosWhite</title><path class="cls-1" d="M187.1,22.5h2.2c5.1,3.7,8.3,9,11.4,14.3,1.5,2.5,2.9,3.5,6,2.4,23.6-9.3,43.6.4,63.3,12v4.2A88.6,88.6,0,0,1,248.1,72c-9.9,5.1-20.2,8.4-31.7,6.4-2.6-.5-6.6-3.4-8,.2s3.6,4,5.9,5.5c26.4,17.1,41.7,40.8,40.9,72.8-.8,34.6-17.8,61.1-46.9,78.3-34.5,20.4-72.6,25.3-111.5,15.2C79.3,246,63.9,237.1,56.5,219v-7.5c2.3-6.1,6.5-10.8,11.3-15.1a74.1,74.1,0,0,0,13.7-16.8c6.6-11.1,7.6-23.4,8.8-35.7,2.2-22.3,11.1-41.4,29.5-54.9,21.3-15.7,45.2-20.3,70.9-14.2,4.3.9,5.7,0,5.9-4.4.9-13.9-3.1-26.1-11.5-37.2C181.4,28.2,181.8,26.4,187.1,22.5Z"/><text class="cls-2" transform="translate(325 123.5)"><tspan class="cls-3">W</tspan><tspan x="75.6" y="0">ebsite </tspan><tspan class="cls-4" x="293" y="0">b</tspan><tspan x="335.6" y="0">y</tspan></text><text class="cls-5" transform="translate(325 230.9)">Eat Mangos</text><rect class="cls-6" x="1.5" y="1.5" width="988.9" height="275"/></svg>