<?xml version="1.0" encoding="utf-8"?>
<!-- Generator: Adobe Illustrator 23.0.3, SVG Export Plug-In . SVG Version: 6.00 Build 0)  -->
<svg version="1.1" id="Layer_1" xmlns="http://www.w3.org/2000/svg" xmlns:xlink="http://www.w3.org/1999/xlink" x="0px" y="0px"
	 viewBox="0 0 300 300" style="enable-background:new 0 0 300 300;" xml:space="preserve">
<style type="text/css">
	.st0{fill:#3E9656;}
	.st1{fill:#90C161;}
	.st2{fill:#2F7D44;}
	.st3{fill:#B49674;}
	.st4{fill:#8D6F51;}
	.st5{fill:#DD9225;}
	.st6{fill:#C16938;}
	.st7{fill:#EAB36A;}
</style>
<title>icon</title>
<path class="st0" d="M205.5,69.4c10.8,4.6,22.6,5.3,35,1.9c4.9-1.4,9.6-3.2,14.1-5.4c10-5.1,19.2-11.8,27.1-19.7
	c2.2-2.4,2.1-6.1-0.2-8.3c-0.4-0.4-0.8-0.7-1.3-0.9c-31.9-16.3-56.7-20.5-73.8-12.5c-4.4,2-8.4,5-11.5,8.8"/>
<path class="st1" d="M205.2,30.2c17-7.9,36.6-9.7,68.5,6.6c1.5,0.7,7.4,4.1,7.1,2.4c-0.3-1.7,0.9-0.9-0.7-1.7
	c-31.9-16.3-56.7-20.5-73.8-12.5c-4.4,2-8.4,5-11.5,8.8l0.9,3C198.5,34,201.7,31.8,205.2,30.2z"/>
<path class="st2" d="M281.5,37.9c-7.9,7.9-17,14.5-26.9,19.6c-4.5,2.3-9.2,4.1-14.1,5.4c-12.4,3.4-24.2,2.7-35-1.9v8.4
	c10.8,4.6,22.6,5.3,35,1.9c4.9-1.4,9.6-3.2,14.1-5.4c10-5.1,19.2-11.8,27.1-19.7C283.9,43.8,283.8,40.2,281.5,37.9L281.5,37.9z"/>
<path class="st3" d="M202.1,83.4c14.7-37-7-65.7-16-76.5c-2.1-2.5-5.8-2.8-8.2-0.8c-2.5,2.1-2.8,5.8-0.8,8.2
	c11.9,14.2,17.5,30,16.8,46.9c0,0.6,0,1.2-0.1,1.8c0,0.1,0,0.2,0,0.3c-0.3,4.6-1.2,9.1-2.4,13.5c-0.2,0.6-0.4,1.2-0.5,1.7"/>
<path class="st4" d="M194.3,77.4c0.2-0.5,0.4-1.1,0.5-1.7c1.3-4.4,2.1-8.9,2.5-13.5c0-0.1,0-0.2,0-0.3c0-0.6,0.1-1.2,0.1-1.8
	c0.7-16.9-4.9-32.7-16.8-46.9c-2.1-2.5-1.7-6.2,0.7-8.2c0,0,0,0,0,0l0.2-0.1c-1.6-0.1-3.1,0.3-4.3,1.3c-2.5,2.1-2.8,5.7-0.8,8.2
	c0,0,0,0,0,0c11.9,14.2,17.5,30,16.8,46.9c0,0.6,0,1.2-0.1,1.8c0,0.1,0,0.2,0,0.3c-0.3,4.6-1.2,9.1-2.4,13.5
	c-0.2,0.6-0.4,1.2-0.5,1.7L194.3,77.4z"/>
<path class="st5" d="M181.6,69.2c-7.4-1.6-14.9-2.4-22.4-2.3c-12.7,0-25.2,2.3-37.1,6.7c-20.3,7.5-36.2,19.8-47.2,36.5
	c-10.1,15.5-15.7,34.1-16.6,55.4c0,0.2,0,0.4,0,0.5c-1.5,34.1-23.7,53.4-31,59.7c-12.8,11-14.2,25.5-3.6,37.7
	c22.6,26.2,58.6,31.8,85.2,31.8h0.9c34-0.2,65.7-9.2,82.5-16.9c26.4-12.3,48-33.1,61-59.2c13.5-27.2,15.5-56.6,5.8-82.8
	c-9.8-26.5-29.8-48-55.5-59.8c-3.5-1.6-7.1-3-10.8-4.3L181.6,69.2z"/>
<path class="st6" d="M259.1,136.3c-9.8-26.5-29.8-48-55.5-59.8c-3.5-1.6-7.1-3-10.8-4.3l-9.1-2.5c24.9,12,38.5,20.6,48.2,46.6
	c9.7,26.1,14.8,62-10.7,89c-19.7,20.9-15.2,53.1-50.5,65.3c-17.5,6-45.7,23.8-82.7,16.8h-0.9c-12.4,0.1-24.8-1.3-36.9-4.1
	c19.3,9.3,41,11.7,58.6,11.7h0.9c34-0.2,65.7-9.2,82.5-16.9c26.4-12.2,48-33.1,61.1-59.1C266.8,192,268.9,162.6,259.1,136.3z"/>
<path class="st7" d="M27.3,237.4c7.3-6.3,29.4-25.6,31-59.7c0-0.2,0-0.4,0-0.6c0.9-21.3,6.4-39.9,16.6-55.4
	c11-16.8,26.8-29.1,47.2-36.5c12-4.4,60.1-15.4,60.1-15.4c-7.4-1.6-14.9-2.4-22.4-2.4c-12.7,0-25.2,2.3-37.1,6.7
	c-20.3,7.5-36.2,19.8-47.2,36.5c-10.1,15.5-15.7,34.1-16.6,55.4c0,0.2,0,0.4,0,0.5c-1.5,34.1-23.7,53.4-31,59.7
	c-8.5,7.4-11.9,16.3-10.2,25C19.6,245.8,22.9,241,27.3,237.4z"/>
</svg>
