<?xml version="1.0" encoding="utf-8"?>
<!-- Generator: Adobe Illustrator 23.0.3, SVG Export Plug-In . SVG Version: 6.00 Build 0)  -->
<svg version="1.1" id="Layer_1" xmlns="http://www.w3.org/2000/svg" xmlns:xlink="http://www.w3.org/1999/xlink" x="0px" y="0px"
	 viewBox="0 0 293 310.6" style="enable-background:new 0 0 293 310.6;" xml:space="preserve">
<style type="text/css">
	.st0{fill:#FFFFFF;}
</style>
<title>icon</title>
<g>
	<path class="st0" d="M166,44.6c0.7,0,1.3,0,2,0c4.8,3.5,7.9,8.5,10.8,13.5c1.4,2.3,2.7,3.3,5.6,2.2c22.2-8.7,41.1,0.4,59.6,11.3
		c0,1.3,0,2.7,0,4c-6.1,6.2-12.9,11.6-20.6,15.6c-9.3,4.8-19,7.9-29.8,6c-2.5-0.4-6.3-3.2-7.6,0.2c-1.2,3.2,3.4,3.8,5.6,5.2
		c24.8,16.1,39.2,38.4,38.5,68.5c-0.8,32.6-16.8,57.6-44.2,73.8c-32.5,19.2-68.3,23.8-105,14.3C64.5,255,50,246.7,43,229.6
		c0-2.3,0-4.7,0-7c2.2-5.8,6.1-10.2,10.6-14.3c5.1-4.5,9.4-9.9,12.9-15.8c6.3-10.4,7.2-22,8.3-33.6c2.1-21,10.5-39,27.8-51.7
		c20.1-14.8,42.6-19.1,66.8-13.4c4,0.9,5.3,0,5.5-4.1c0.9-13.1-2.9-24.6-10.8-35C160.6,50,161,48.3,166,44.6z"/>
</g>
</svg>
